<?xml version="1.0" encoding="iso-8859-1"?>
<!-- Generator: Adobe Illustrator 19.0.0, SVG Export Plug-In . SVG Version: 6.00 Build 0)  -->
<svg version="1.1" id="Layer_1" xmlns="http://www.w3.org/2000/svg" xmlns:xlink="http://www.w3.org/1999/xlink" x="0px" y="0px"
	 viewBox="0 0 297 297" style="enable-background:new 0 0 297 297;fill: #FFFFFF" xml:space="preserve">
<g>
	<g>
		<g>
			<path d="M154.848,6.347c-30.18,0-59.013,9.345-83.385,27.026c-4.19,3.04-5.329,8.795-2.613,13.202l22.33,36.228
				c1.445,2.344,3.8,3.98,6.502,4.515c2.7,0.534,5.502-0.08,7.731-1.697c13.303-9.65,29.046-14.752,45.528-14.752
				c42.806,0,77.631,34.825,77.631,77.631c0,42.806-34.825,77.631-77.631,77.631c-16.482,0-32.225-5.101-45.528-14.752
				c-2.228-1.617-5.029-2.233-7.731-1.697c-2.702,0.534-5.058,2.17-6.502,4.515l-22.33,36.228
				c-2.716,4.406-1.577,10.162,2.613,13.202c24.372,17.68,53.206,27.026,83.385,27.026C233.231,290.651,297,226.882,297,148.499
				S233.231,6.347,154.848,6.347z M154.848,270.861c-22.901,0-44.901-6.25-64.159-18.154l12.041-19.535
				c14.635,8.367,31.108,12.747,48.212,12.747c53.718,0,97.421-43.703,97.421-97.421s-43.703-97.421-97.421-97.421
				c-17.104,0-33.577,4.38-48.212,12.747L90.689,44.291c19.257-11.904,41.257-18.154,64.159-18.154
				c67.47,0,122.362,54.892,122.362,122.362C277.21,215.969,222.318,270.861,154.848,270.861z"/>
			<path d="M94.81,202.148c1.722-3.218,1.534-7.122-0.491-10.158l-11.513-17.27h84.913c14.459,0,26.222-11.763,26.222-26.222
				c0-14.459-11.763-26.222-26.222-26.222H82.806l11.513-17.27c2.024-3.036,2.213-6.94,0.491-10.158
				c-1.722-3.217-5.075-5.226-8.724-5.226H42.548c-3.309,0-6.398,1.653-8.233,4.406l-32.653,48.98
				c-2.216,3.323-2.216,7.654,0,10.977l32.653,48.98c1.835,2.753,4.924,4.406,8.233,4.406h43.538
				C89.735,207.374,93.088,205.365,94.81,202.148z M47.843,187.586v-0.002l-26.056-39.085l26.056-39.085h19.753l-11.513,17.27
				c-2.024,3.036-2.213,6.94-0.491,10.158c1.722,3.217,5.075,5.226,8.724,5.226h103.402c3.546,0,6.432,2.885,6.432,6.432
				c0,3.547-2.885,6.432-6.432,6.432H64.317c-3.649,0-7.002,2.009-8.724,5.226c-1.722,3.218-1.534,7.122,0.491,10.158l11.513,17.27
				H47.843z"/>
		</g>
	</g>
</g>
<g>
</g>
<g>
</g>
<g>
</g>
<g>
</g>
<g>
</g>
<g>
</g>
<g>
</g>
<g>
</g>
<g>
</g>
<g>
</g>
<g>
</g>
<g>
</g>
<g>
</g>
<g>
</g>
<g>
</g>
</svg>
